/* XPM */
static char * min_xpm[] = {
"19 19 47 1",
" 	c None",
".	c #2B2B2B",
"+	c #2B2A2B",
"@	c #2A2B2B",
"#	c #2B2B2A",
"$	c #2A2A2B",
"%	c #2A2A2A",
"&	c #29292A",
"*	c #292929",
"=	c #292829",
"-	c #282828",
";	c #1E1E1E",
">	c #1D1D1E",
",	c #1D1D1D",
"'	c #1C1D1C",
")	c #1C1C1C",
"!	c #1D1C1C",
"~	c #1C1C1B",
"{	c #1C1B1C",
"]	c #1B1B1B",
"^	c #1B1B1A",
"/	c #1A1B1A",
"(	c #111111",
"_	c #111011",
":	c #101011",
"<	c #111010",
"[	c #101010",
"}	c #0F0F10",
"|	c #0F0F0F",
"1	c #0E0F0F",
"2	c #0F0E0F",
"3	c #0E0E0E",
"4	c #0E0D0D",
"5	c #040404",
"6	c #040304",
"7	c #030404",
"8	c #030303",
"9	c #030302",
"0	c #020202",
"a	c #030202",
"b	c #020201",
"c	c #010102",
"d	c #010101",
"e	c #000101",
"f	c #000000",
"g	c #779DAE",
"h	c #3F3F3F",
".+@#$%%&%****=-----",
";;>,,,,,')!)~{]]]^/",
"((_:<[[}}|||1233334",
"565788890a00bcddded",
"fffffffffffffffffff",
"fffffffffffffffffff",
"fffffffffffffffffff",
"fffffffffffffffffff",
"gggggggggffffffffff",
"hhhhhhhhhffffffffff",
"fffffffffffffffffff",
"fffffffffffffffffff",
"fffffffffffffffffff",
"fffffffffffffffffff",
"fffffffffffffffffff",
"fffffffffffffffffff",
"fffffffffffffffffff",
"fffffffffffffffffff",
"fffffffffffffffffff"};
