/* XPM */
static char * stick_xpm[] = {
"19 19 47 1",
" 	c None",
".	c #282828",
"+	c #292829",
"@	c #292929",
"#	c #2A2A2A",
"$	c #29292A",
"%	c #2A2A2B",
"&	c #2B2B2A",
"*	c #2A2B2B",
"=	c #2B2A2B",
"-	c #2B2B2B",
";	c #1A1B1A",
">	c #1B1B1A",
",	c #1B1B1B",
"'	c #1C1B1C",
")	c #1C1C1B",
"!	c #1C1C1C",
"~	c #1D1C1C",
"{	c #1C1D1C",
"]	c #1D1D1D",
"^	c #1D1D1E",
"/	c #1E1E1E",
"(	c #0E0D0D",
"_	c #0E0E0E",
":	c #0F0E0F",
"<	c #0E0F0F",
"[	c #0F0F0F",
"}	c #0F0F10",
"|	c #101010",
"1	c #111010",
"2	c #101011",
"3	c #111011",
"4	c #111111",
"5	c #010101",
"6	c #000101",
"7	c #010102",
"8	c #020201",
"9	c #020202",
"0	c #030202",
"a	c #030302",
"b	c #030303",
"c	c #030404",
"d	c #040404",
"e	c #040304",
"f	c #000000",
"g	c #779DAE",
"h	c #3F3F3F",
".....+@@@@#$##%&*=-",
";>,,,')!~!{]]]]]^//",
"(____:<[[[}}||12344",
"56555789909abbbcded",
"fffffffffffffffffff",
"fffffffffffffffffff",
"fffffffffffffffffff",
"fffffffffffffffffff",
"fffffffgggggggggfff",
"fffffffhhhhhhhhhfff",
"fffffffffffffffffff",
"fffffffffffffffffff",
"fffffffffffffffffff",
"fffffffffffffffffff",
"fffffffffffffffffff",
"fffffffffffffffffff",
"fffffffffffffffffff",
"fffffffffffffffffff",
"fffffffffffffffffff"};
